<svg width="33" height="21" viewBox="0 0 33 21" fill="none" xmlns="http://www.w3.org/2000/svg">
<path fill-rule="evenodd" clip-rule="evenodd" d="M17.5706 13.8548C16.9042 14.4942 15.8257 14.4942 15.1593 13.8548L1.95024 1.14188C1.76784 0.966342 1.70398 0.706793 1.78521 0.471188C1.93251 0.039375 2.35258 0 2.72764 0H30.005C30.3787 0 30.796 0.039375 30.9461 0.471188C31.0273 0.706793 30.9634 0.966342 30.781 1.14188L17.5706 13.8548ZM32.3073 2.45558C32.3788 2.38654 32.4868 2.36628 32.5801 2.40439C32.6728 2.44119 32.7332 2.52835 32.7328 2.62489V18.3749C32.7328 19.8246 31.5116 20.9999 30.0051 20.9999H2.72774C1.22125 20.9999 2.70326e-06 19.8246 2.70326e-06 18.3749V2.62489C-0.000460337 2.52909 0.0585973 2.44229 0.150028 2.40439C0.243202 2.36552 0.351631 2.38586 0.422802 2.45558L13.711 15.2459C15.1755 16.6545 17.5491 16.6545 19.0137 15.2459L32.3073 2.45558Z" fill="black"/>
</svg>
