<svg width="32" height="44" viewBox="0 0 32 44" fill="none" xmlns="http://www.w3.org/2000/svg">
<path d="M16 20.9C14.4845 20.9 13.031 20.3205 11.9594 19.2891C10.8878 18.2576 10.2857 16.8587 10.2857 15.4C10.2857 13.9413 10.8878 12.5424 11.9594 11.5109C13.031 10.4795 14.4845 9.9 16 9.9C17.5155 9.9 18.969 10.4795 20.0406 11.5109C21.1122 12.5424 21.7143 13.9413 21.7143 15.4C21.7143 16.1223 21.5665 16.8375 21.2793 17.5048C20.9921 18.1721 20.5712 18.7784 20.0406 19.2891C19.51 19.7998 18.8801 20.2049 18.1868 20.4813C17.4935 20.7577 16.7504 20.9 16 20.9ZM16 0C11.7565 0 7.68687 1.6225 4.68629 4.51056C1.68571 7.39862 0 11.3157 0 15.4C0 26.95 16 44 16 44C16 44 32 26.95 32 15.4C32 11.3157 30.3143 7.39862 27.3137 4.51056C24.3131 1.6225 20.2435 0 16 0Z" fill="black"/>
</svg>
